<svg width="17" height="17" viewBox="0 0 17 17" fill="none" xmlns="http://www.w3.org/2000/svg">
<path d="M8.91504 9.34497V5.34497M6.91504 7.34497H10.915M7.51504 13.145L8.48837 14.4427C8.63312 14.6357 8.70549 14.7322 8.79422 14.7667C8.87193 14.797 8.95815 14.797 9.03586 14.7667C9.12459 14.7322 9.19696 14.6357 9.34171 14.4427L10.315 13.145C10.5105 12.8844 10.6082 12.7541 10.7274 12.6546C10.8863 12.522 11.0739 12.4282 11.2754 12.3806C11.4265 12.345 11.5893 12.345 11.915 12.345C12.8469 12.345 13.3129 12.345 13.6804 12.1927C14.1705 11.9897 14.5598 11.6004 14.7628 11.1103C14.915 10.7428 14.915 10.2769 14.915 9.34497V5.54497C14.915 4.42487 14.915 3.86481 14.6971 3.43699C14.5053 3.06067 14.1993 2.7547 13.823 2.56296C13.3952 2.34497 12.8351 2.34497 11.715 2.34497H6.11504C4.99493 2.34497 4.43488 2.34497 4.00706 2.56296C3.63073 2.7547 3.32477 3.06067 3.13303 3.43699C2.91504 3.86481 2.91504 4.42487 2.91504 5.54497V9.34497C2.91504 10.2769 2.91504 10.7428 3.06728 11.1103C3.27027 11.6004 3.65962 11.9897 4.14967 12.1927C4.51721 12.345 4.98316 12.345 5.91504 12.345C6.24076 12.345 6.40362 12.345 6.55471 12.3806C6.75617 12.4282 6.94378 12.522 7.1027 12.6546C7.22189 12.7541 7.31961 12.8844 7.51504 13.145Z" stroke="black" stroke-width="1.34" stroke-linecap="round" stroke-linejoin="round"/>
</svg>
