<svg width="17" height="17" viewBox="0 0 17 17" fill="none" xmlns="http://www.w3.org/2000/svg">
<g clip-path="url(#clip0_804_783)">
<path d="M8.91496 13.3583H4.38162C3.63489 13.3583 3.26152 13.3583 2.9763 13.213C2.72542 13.0852 2.52145 12.8812 2.39362 12.6303C2.24829 12.3451 2.24829 11.9717 2.24829 11.225V4.82498C2.24829 4.07825 2.24829 3.70488 2.39362 3.41966C2.52145 3.16878 2.72542 2.96481 2.9763 2.83698C3.26152 2.69165 3.63489 2.69165 4.38162 2.69165H4.64829C6.14176 2.69165 6.8885 2.69165 7.45893 2.9823C7.9607 3.23796 8.36865 3.64591 8.62431 4.14768C8.91496 4.71811 8.91496 5.46484 8.91496 6.95832M8.91496 13.3583V6.95832M8.91496 13.3583H13.4483C14.195 13.3583 14.5684 13.3583 14.8536 13.213C15.1045 13.0852 15.3085 12.8812 15.4363 12.6303C15.5816 12.3451 15.5816 11.9717 15.5816 11.225V4.82498C15.5816 4.07825 15.5816 3.70488 15.4363 3.41966C15.3085 3.16878 15.1045 2.96481 14.8536 2.83698C14.5684 2.69165 14.195 2.69165 13.4483 2.69165H13.1816C11.6882 2.69165 10.9414 2.69165 10.371 2.9823C9.86922 3.23796 9.46127 3.64591 9.20561 4.14768C8.91496 4.71811 8.91496 5.46484 8.91496 6.95832" stroke="black" stroke-width="1.34" stroke-linecap="round" stroke-linejoin="round"/>
</g>
<defs>
<clipPath id="clip0_804_783">
<rect width="16" height="16" fill="white" transform="translate(0.915039 0.0249939)"/>
</clipPath>
</defs>
</svg>
