<svg width="17" height="17" viewBox="0 0 17 17" fill="none" xmlns="http://www.w3.org/2000/svg">
<g clip-path="url(#clip0_804_781)">
<path d="M8.24829 3.83499H13.115C13.8617 3.83499 14.2351 3.83499 14.5203 3.98031C14.7712 4.10814 14.9751 4.31212 15.103 4.563C15.2483 4.84821 15.2483 5.22158 15.2483 5.96832V6.83499C15.2483 7.45624 15.2483 7.76687 15.1468 8.0119C15.0115 8.3386 14.7519 8.59817 14.4252 8.73349C14.1802 8.83499 13.8695 8.83499 13.2483 8.83499M9.58162 13.835H4.71496C3.96822 13.835 3.59485 13.835 3.30964 13.6897C3.05875 13.5618 2.85478 13.3579 2.72695 13.107C2.58162 12.8218 2.58162 12.4484 2.58162 11.7017V10.835C2.58162 10.2137 2.58162 9.9031 2.68312 9.65808C2.81844 9.33137 3.07801 9.07181 3.40471 8.93648C3.64974 8.83499 3.96037 8.83499 4.58162 8.83499M7.78162 10.5017H10.0483C10.235 10.5017 10.3283 10.5017 10.3996 10.4653C10.4623 10.4334 10.5133 10.3824 10.5453 10.3197C10.5816 10.2483 10.5816 10.155 10.5816 9.96832V7.70165C10.5816 7.51497 10.5816 7.42163 10.5453 7.35032C10.5133 7.2876 10.4623 7.23661 10.3996 7.20465C10.3283 7.16832 10.235 7.16832 10.0483 7.16832H7.78162C7.59494 7.16832 7.5016 7.16832 7.43029 7.20465C7.36757 7.23661 7.31658 7.2876 7.28462 7.35032C7.24829 7.42163 7.24829 7.51497 7.24829 7.70165V9.96832C7.24829 10.155 7.24829 10.2483 7.28462 10.3197C7.31658 10.3824 7.36757 10.4334 7.43029 10.4653C7.5016 10.5017 7.59494 10.5017 7.78162 10.5017ZM12.7816 15.5017H15.0483C15.235 15.5017 15.3283 15.5017 15.3996 15.4653C15.4623 15.4334 15.5133 15.3824 15.5453 15.3197C15.5816 15.2483 15.5816 15.155 15.5816 14.9683V12.7017C15.5816 12.515 15.5816 12.4216 15.5453 12.3503C15.5133 12.2876 15.4623 12.2366 15.3996 12.2047C15.3283 12.1683 15.235 12.1683 15.0483 12.1683H12.7816C12.5949 12.1683 12.5016 12.1683 12.4303 12.2047C12.3676 12.2366 12.3166 12.2876 12.2846 12.3503C12.2483 12.4216 12.2483 12.515 12.2483 12.7017V14.9683C12.2483 15.155 12.2483 15.2483 12.2846 15.3197C12.3166 15.3824 12.3676 15.4334 12.4303 15.4653C12.5016 15.5017 12.5949 15.5017 12.7816 15.5017ZM2.78162 5.50165H5.04829C5.23498 5.50165 5.32832 5.50165 5.39962 5.46532C5.46234 5.43336 5.51334 5.38237 5.54529 5.31965C5.58162 5.24835 5.58162 5.155 5.58162 4.96832V2.70165C5.58162 2.51497 5.58162 2.42163 5.54529 2.35032C5.51334 2.2876 5.46234 2.23661 5.39962 2.20465C5.32832 2.16832 5.23498 2.16832 5.04829 2.16832H2.78162C2.59494 2.16832 2.5016 2.16832 2.43029 2.20465C2.36757 2.23661 2.31658 2.2876 2.28462 2.35032C2.24829 2.42163 2.24829 2.51497 2.24829 2.70165V4.96832C2.24829 5.155 2.24829 5.24835 2.28462 5.31965C2.31658 5.38237 2.36757 5.43336 2.43029 5.46532C2.5016 5.50165 2.59494 5.50165 2.78162 5.50165Z" stroke="black" stroke-width="1.34" stroke-linecap="round" stroke-linejoin="round"/>
</g>
<defs>
<clipPath id="clip0_804_781">
<rect width="16" height="16" fill="white" transform="translate(0.915039 0.834991)"/>
</clipPath>
</defs>
</svg>
