<svg width="17" height="17" viewBox="0 0 17 17" fill="none" xmlns="http://www.w3.org/2000/svg">
<path d="M14.2083 7.57501V5.10835C14.2083 3.98824 14.2083 3.42819 13.9903 3.00037C13.7986 2.62404 13.4926 2.31808 13.1163 2.12634C12.6884 1.90835 12.1284 1.90835 11.0083 1.90835H6.74163C5.62152 1.90835 5.06147 1.90835 4.63364 2.12634C4.25732 2.31808 3.95136 2.62404 3.75961 3.00037C3.54163 3.42819 3.54163 3.98824 3.54163 5.10835V12.0417C3.54163 13.1618 3.54163 13.7218 3.75961 14.1497C3.95136 14.526 4.25732 14.8319 4.63364 15.0237C5.06147 15.2417 5.62152 15.2417 6.74163 15.2417H8.87496M10.2083 7.90835H6.20829M7.54163 10.575H6.20829M11.5416 5.24168H6.20829M12.875 14.575V10.575M10.875 12.575H14.875" stroke="black" stroke-width="1.34" stroke-linecap="round" stroke-linejoin="round"/>
</svg>
