<svg width="17" height="17" viewBox="0 0 17 17" fill="none" xmlns="http://www.w3.org/2000/svg">
<g clip-path="url(#clip0_804_789)">
<path d="M2.24829 8.06498H15.5816M2.24829 4.73165H5.58162M12.2483 4.73165H15.5816M2.24829 11.3983H5.58162M12.2483 11.3983H15.5816M5.58162 14.7316V1.39832M12.2483 14.7316V1.39832M5.44829 14.7316H12.3816C13.5017 14.7316 14.0618 14.7316 14.4896 14.5137C14.8659 14.3219 15.1719 14.016 15.3636 13.6396C15.5816 13.2118 15.5816 12.6518 15.5816 11.5316V4.59832C15.5816 3.47821 15.5816 2.91816 15.3636 2.49033C15.1719 2.11401 14.8659 1.80805 14.4896 1.6163C14.0618 1.39832 13.5017 1.39832 12.3816 1.39832H5.44829C4.32819 1.39832 3.76813 1.39832 3.34031 1.6163C2.96399 1.80805 2.65802 2.11401 2.46628 2.49033C2.24829 2.91816 2.24829 3.47821 2.24829 4.59832V11.5316C2.24829 12.6518 2.24829 13.2118 2.46628 13.6396C2.65802 14.016 2.96399 14.3219 3.34031 14.5137C3.76813 14.7316 4.32819 14.7316 5.44829 14.7316Z" stroke="black" stroke-width="1.34" stroke-linecap="round" stroke-linejoin="round"/>
</g>
<defs>
<clipPath id="clip0_804_789">
<rect width="16" height="16" fill="white" transform="translate(0.915039 0.0650024)"/>
</clipPath>
</defs>
</svg>
