<svg width="17" height="17" viewBox="0 0 17 17" fill="none" xmlns="http://www.w3.org/2000/svg">
<g clip-path="url(#clip0_804_787)">
<path d="M10.2814 4.79499C10.9326 4.92204 11.531 5.2405 12.0001 5.70962C12.4692 6.17874 12.7877 6.77717 12.9147 7.42833M10.2814 2.12833C11.6342 2.27862 12.8958 2.88444 13.8589 3.84633C14.822 4.80822 15.4294 6.069 15.5814 7.42166M7.73272 10.037C6.93167 9.23599 6.29914 8.33023 5.83514 7.36381C5.79523 7.28069 5.77528 7.23912 5.75994 7.18653C5.70546 6.99963 5.7446 6.77012 5.85794 6.61183C5.88983 6.56729 5.92793 6.52919 6.00414 6.45298C6.23721 6.21991 6.35375 6.10337 6.42994 5.98619C6.71727 5.54426 6.71727 4.97454 6.42994 4.53261C6.35375 4.41543 6.23721 4.29889 6.00414 4.06582L5.87423 3.93591C5.51993 3.58161 5.34279 3.40447 5.15253 3.30824C4.77416 3.11686 4.32732 3.11686 3.94894 3.30824C3.75869 3.40447 3.58154 3.58161 3.22725 3.93591L3.12216 4.041C2.76907 4.39408 2.59253 4.57062 2.4577 4.81064C2.30809 5.07698 2.20051 5.49064 2.20142 5.79612C2.20224 6.07142 2.25564 6.25957 2.36245 6.63587C2.93643 8.65813 4.01941 10.5664 5.6114 12.1584C7.20338 13.7503 9.11163 14.8333 11.1339 15.4073C11.5102 15.5141 11.6983 15.5675 11.9736 15.5683C12.2791 15.5692 12.6928 15.4617 12.9591 15.3121C13.1991 15.1772 13.3757 15.0007 13.7288 14.6476L13.8338 14.5425C14.1881 14.1882 14.3653 14.0111 14.4615 13.8208C14.6529 13.4424 14.6529 12.9956 14.4615 12.6172C14.3653 12.427 14.1881 12.2498 13.8338 11.8955L13.7039 11.7656C13.4709 11.5325 13.3543 11.416 13.2371 11.3398C12.7952 11.0525 12.2255 11.0525 11.7836 11.3398C11.6664 11.416 11.5498 11.5325 11.3168 11.7656C11.2406 11.8418 11.2025 11.8799 11.1579 11.9118C10.9996 12.0252 10.7701 12.0643 10.5832 12.0098C10.5306 11.9945 10.4891 11.9745 10.4059 11.9346C9.43953 11.4706 8.53377 10.8381 7.73272 10.037Z" stroke="black" stroke-width="1.34" stroke-linecap="round" stroke-linejoin="round"/>
</g>
<defs>
<clipPath id="clip0_804_787">
<rect width="16" height="16" fill="white" transform="translate(0.915039 0.794983)"/>
</clipPath>
</defs>
</svg>
