<svg width="17" height="17" viewBox="0 0 17 17" fill="none" xmlns="http://www.w3.org/2000/svg">
<g clip-path="url(#clip0_804_779)">
<path d="M4.91496 4.095L7.91496 7.095M4.91496 4.095H2.91496L2.24829 2.095L2.91496 1.42833L4.91496 2.095V4.095ZM13.7543 1.92234L12.0025 3.67409C11.7385 3.9381 11.6065 4.0701 11.5571 4.22232C11.5136 4.35622 11.5136 4.50045 11.5571 4.63435C11.6065 4.78657 11.7385 4.91857 12.0025 5.18258L12.1607 5.34075C12.4247 5.60477 12.5567 5.73677 12.7089 5.78623C12.8428 5.82974 12.9871 5.82974 13.121 5.78623C13.2732 5.73677 13.4052 5.60477 13.6692 5.34075L15.3078 3.70215C15.4843 4.13159 15.5816 4.60193 15.5816 5.095C15.5816 7.12005 13.94 8.76167 11.915 8.76167C11.6708 8.76167 11.4323 8.73781 11.2015 8.69229C10.8774 8.62837 10.7153 8.59641 10.6171 8.6062C10.5126 8.61661 10.4612 8.63227 10.3686 8.68179C10.2816 8.72837 10.1943 8.81569 10.0196 8.99032L5.24829 13.7617C4.69601 14.3139 3.80058 14.3139 3.24829 13.7617C2.69601 13.2094 2.69601 12.3139 3.24829 11.7617L8.01964 6.99031C8.19427 6.81569 8.28159 6.72837 8.32817 6.64133C8.37769 6.54879 8.39335 6.49731 8.40376 6.39288C8.41355 6.29464 8.38159 6.13259 8.31767 5.80849C8.27215 5.57771 8.24829 5.33914 8.24829 5.095C8.24829 3.06996 9.88991 1.42833 11.915 1.42833C12.5853 1.42833 13.2136 1.60822 13.7543 1.92234ZM8.91499 10.095L12.5816 13.7616C13.1339 14.3139 14.0293 14.3139 14.5816 13.7616C15.1339 13.2093 15.1339 12.3139 14.5816 11.7616L11.5652 8.7452C11.3516 8.72499 11.1434 8.68647 10.9421 8.63122C10.6828 8.56003 10.3983 8.6117 10.2081 8.80189L8.91499 10.095Z" stroke="black" stroke-width="1.34" stroke-linecap="round" stroke-linejoin="round"/>
</g>
<defs>
<clipPath id="clip0_804_779">
<rect width="16" height="16" fill="white" transform="translate(0.915039 0.0950012)"/>
</clipPath>
</defs>
</svg>
