<svg width="17" height="17" viewBox="0 0 17 17" fill="none" xmlns="http://www.w3.org/2000/svg">
<g clip-path="url(#clip0_802_892)">
<path d="M3.57167 5.34606C3.46233 5.34324 3.38293 5.33691 3.31155 5.32271C2.78263 5.2175 2.36916 4.80404 2.26395 4.27512C2.23833 4.14632 2.23833 3.99144 2.23833 3.68167C2.23833 3.3719 2.23833 3.21701 2.26395 3.08821C2.36916 2.55929 2.78263 2.14583 3.31155 2.04062C3.44035 2.015 3.59523 2.015 3.905 2.015H13.905C14.2148 2.015 14.3697 2.015 14.4985 2.04062C15.0274 2.14583 15.4408 2.55929 15.546 3.08821C15.5717 3.21701 15.5717 3.3719 15.5717 3.68167C15.5717 3.99144 15.5717 4.14632 15.546 4.27512C15.4408 4.80404 15.0274 5.2175 14.4985 5.32271C14.4271 5.33691 14.3477 5.34324 14.2383 5.34606M7.57167 8.68167H10.2383M3.57167 5.34833H14.2383V10.815C14.2383 11.9351 14.2383 12.4952 14.0203 12.923C13.8286 13.2993 13.5226 13.6053 13.1463 13.797C12.7185 14.015 12.1584 14.015 11.0383 14.015H6.77167C5.65156 14.015 5.09151 14.015 4.66369 13.797C4.28736 13.6053 3.9814 13.2993 3.78965 12.923C3.57167 12.4952 3.57167 11.9351 3.57167 10.815V5.34833Z" stroke="black" stroke-width="1.34" stroke-linecap="round" stroke-linejoin="round"/>
</g>
<defs>
<clipPath id="clip0_802_892">
<rect width="16" height="16" fill="white" transform="translate(0.904999 0.0149994)"/>
</clipPath>
</defs>
</svg>
