<svg width="17" height="16" viewBox="0 0 17 16" fill="none" xmlns="http://www.w3.org/2000/svg">
<path d="M8.66669 2.66665V10.1333C8.66669 11.2534 8.66669 11.8135 8.88467 12.2413C9.07642 12.6176 9.38238 12.9236 9.75871 13.1153C10.1865 13.3333 10.7466 13.3333 11.8667 13.3333H12M12 13.3333C12 14.0697 12.597 14.6666 13.3334 14.6666C14.0697 14.6666 14.6667 14.0697 14.6667 13.3333C14.6667 12.5969 14.0697 12 13.3334 12C12.597 12 12 12.5969 12 13.3333ZM5.33335 2.66665L12 2.66665M5.33335 2.66665C5.33335 3.40303 4.7364 3.99998 4.00002 3.99998C3.26364 3.99998 2.66669 3.40303 2.66669 2.66665C2.66669 1.93027 3.26364 1.33331 4.00002 1.33331C4.7364 1.33331 5.33335 1.93027 5.33335 2.66665ZM12 2.66665C12 3.40303 12.597 3.99998 13.3334 3.99998C14.0697 3.99998 14.6667 3.40303 14.6667 2.66665C14.6667 1.93027 14.0697 1.33331 13.3334 1.33331C12.597 1.33331 12 1.93027 12 2.66665ZM8.66669 7.99998H12M12 7.99998C12 8.73636 12.597 9.33331 13.3334 9.33331C14.0697 9.33331 14.6667 8.73636 14.6667 7.99998C14.6667 7.2636 14.0697 6.66665 13.3334 6.66665C12.597 6.66665 12 7.2636 12 7.99998Z" stroke="black" stroke-width="1.33333" stroke-linecap="round" stroke-linejoin="round"/>
</svg>
