<svg width="17" height="17" viewBox="0 0 17 17" fill="none" xmlns="http://www.w3.org/2000/svg">
<path d="M8.14503 8.68167C8.51322 8.68167 8.8117 8.38319 8.8117 8.015C8.8117 7.64681 8.51322 7.34834 8.14503 7.34834C7.77684 7.34834 7.47836 7.64681 7.47836 8.015C7.47836 8.38319 7.77684 8.68167 8.14503 8.68167Z" stroke="black" stroke-width="1.34" stroke-linecap="round" stroke-linejoin="round"/>
<path d="M8.14503 4.015C8.51322 4.015 8.8117 3.71653 8.8117 3.34834C8.8117 2.98015 8.51322 2.68167 8.14503 2.68167C7.77684 2.68167 7.47836 2.98015 7.47836 3.34834C7.47836 3.71653 7.77684 4.015 8.14503 4.015Z" stroke="black" stroke-width="1.34" stroke-linecap="round" stroke-linejoin="round"/>
<path d="M8.14503 13.3483C8.51322 13.3483 8.8117 13.0499 8.8117 12.6817C8.8117 12.3135 8.51322 12.015 8.14503 12.015C7.77684 12.015 7.47836 12.3135 7.47836 12.6817C7.47836 13.0499 7.77684 13.3483 8.14503 13.3483Z" stroke="black" stroke-width="1.34" stroke-linecap="round" stroke-linejoin="round"/>
</svg>
