<svg width="17" height="17" viewBox="0 0 17 17" fill="none" xmlns="http://www.w3.org/2000/svg">
<g clip-path="url(#clip0_811_891)">
<path d="M2.8774 13.0371C2.90803 12.7614 2.92335 12.6236 2.96505 12.4948C3.00205 12.3805 3.05433 12.2717 3.12047 12.1714C3.19501 12.0584 3.29307 11.9603 3.48919 11.7642L12.2934 2.96C13.0298 2.22362 14.2237 2.22362 14.9601 2.96C15.6964 3.69638 15.6964 4.89029 14.9601 5.62667L6.15586 14.4309C5.95974 14.627 5.86168 14.725 5.74863 14.7996C5.64834 14.8657 5.53957 14.918 5.42527 14.955C5.29644 14.9967 5.15861 15.012 4.88295 15.0426L2.62671 15.2933L2.8774 13.0371Z" stroke="black" stroke-width="1.34" stroke-linecap="round" stroke-linejoin="round"/>
</g>
<defs>
<clipPath id="clip0_811_891">
<rect width="16" height="16" fill="white" transform="translate(0.960022 0.960022)"/>
</clipPath>
</defs>
</svg>
