<svg width="17" height="17" viewBox="0 0 17 17" fill="none" xmlns="http://www.w3.org/2000/svg">
<path d="M9.19166 10.973C9.19166 11.7264 9.19166 12.1031 9.34383 12.2877C9.47604 12.4482 9.67552 12.5377 9.88326 12.53C10.1224 12.521 10.4039 12.2708 10.967 11.7703L14.2948 8.81223C14.605 8.53651 14.7601 8.39864 14.8172 8.23585C14.8674 8.09289 14.8674 7.9371 14.8172 7.79414C14.7601 7.63135 14.605 7.49349 14.2948 7.21776L10.967 4.25973C10.4039 3.75923 10.1224 3.50897 9.88326 3.50002C9.67552 3.49225 9.47604 3.58183 9.34383 3.74226C9.19166 3.92693 9.19166 4.30361 9.19166 5.05696V10.973Z" stroke="black" stroke-width="1.34" stroke-linecap="round" stroke-linejoin="round"/>
<path d="M1.85832 10.973C1.85832 11.7264 1.85832 12.1031 2.0105 12.2877C2.1427 12.4482 2.34218 12.5377 2.54992 12.53C2.78905 12.521 3.07058 12.2708 3.63364 11.7703L6.96143 8.81223C7.27162 8.53651 7.42672 8.39864 7.48388 8.23585C7.53407 8.09289 7.53407 7.9371 7.48388 7.79414C7.42672 7.63135 7.27162 7.49349 6.96143 7.21776L3.63364 4.25973C3.07058 3.75923 2.78905 3.50897 2.54992 3.50002C2.34218 3.49225 2.1427 3.58183 2.0105 3.74226C1.85832 3.92693 1.85832 4.30361 1.85832 5.05696V10.973Z" stroke="black" stroke-width="1.34" stroke-linecap="round" stroke-linejoin="round"/>
</svg>
