<svg width="17" height="16" viewBox="0 0 17 16" fill="none" xmlns="http://www.w3.org/2000/svg">
<path d="M8.49998 9.99998C9.60455 9.99998 10.5 9.10455 10.5 7.99998C10.5 6.89541 9.60455 5.99998 8.49998 5.99998C7.39541 5.99998 6.49998 6.89541 6.49998 7.99998C6.49998 9.10455 7.39541 9.99998 8.49998 9.99998Z" stroke="black" stroke-width="1.5" stroke-linecap="round" stroke-linejoin="round"/>
<path d="M12.9848 9.81816C12.9042 10.001 12.8801 10.2037 12.9157 10.4003C12.9514 10.5969 13.0451 10.7784 13.1848 10.9212L13.2212 10.9576C13.3339 11.0701 13.4233 11.2038 13.4843 11.351C13.5453 11.4981 13.5767 11.6558 13.5767 11.8151C13.5767 11.9744 13.5453 12.1322 13.4843 12.2793C13.4233 12.4265 13.3339 12.5601 13.2212 12.6727C13.1086 12.7854 12.9749 12.8748 12.8278 12.9358C12.6806 12.9968 12.5229 13.0282 12.3636 13.0282C12.2043 13.0282 12.0466 12.9968 11.8994 12.9358C11.7523 12.8748 11.6186 12.7854 11.506 12.6727L11.4697 12.6363C11.3268 12.4966 11.1454 12.4029 10.9488 12.3672C10.7522 12.3316 10.5494 12.3557 10.3666 12.4363C10.1874 12.5132 10.0345 12.6407 9.92683 12.8033C9.81915 12.9659 9.76136 13.1565 9.76059 13.3515V13.4545C9.76059 13.776 9.63288 14.0843 9.40556 14.3116C9.17825 14.5389 8.86994 14.6666 8.54846 14.6666C8.22699 14.6666 7.91868 14.5389 7.69137 14.3116C7.46405 14.0843 7.33634 13.776 7.33634 13.4545V13.4C7.33165 13.1994 7.26672 13.0048 7.14999 12.8416C7.03325 12.6784 6.87012 12.5541 6.6818 12.4848C6.499 12.4042 6.29623 12.3801 6.09962 12.4157C5.90302 12.4514 5.7216 12.5451 5.57877 12.6848L5.5424 12.7212C5.42983 12.8339 5.29615 12.9233 5.149 12.9843C5.00185 13.0453 4.84412 13.0767 4.68483 13.0767C4.52554 13.0767 4.36781 13.0453 4.22066 12.9843C4.07351 12.9233 3.93983 12.8339 3.82725 12.7212C3.71455 12.6086 3.62515 12.4749 3.56415 12.3278C3.50315 12.1806 3.47175 12.0229 3.47175 11.8636C3.47175 11.7043 3.50315 11.5466 3.56415 11.3994C3.62515 11.2523 3.71455 11.1186 3.82725 11.006L3.86362 10.9697C4.00334 10.8268 4.09706 10.6454 4.13271 10.4488C4.16836 10.2522 4.14429 10.0494 4.06362 9.86665C3.98679 9.68739 3.85923 9.53451 3.69663 9.42683C3.53403 9.31915 3.34349 9.26136 3.14846 9.26059H3.04543C2.72396 9.26059 2.41565 9.13288 2.18834 8.90556C1.96102 8.67825 1.83331 8.36994 1.83331 8.04846C1.83331 7.72699 1.96102 7.41868 2.18834 7.19137C2.41565 6.96405 2.72396 6.83634 3.04543 6.83634H3.09998C3.30058 6.83165 3.49513 6.76672 3.65834 6.64999C3.82155 6.53325 3.94587 6.37012 4.01513 6.1818C4.09581 5.999 4.11987 5.79623 4.08422 5.59962C4.04858 5.40302 3.95485 5.2216 3.81513 5.07877L3.77877 5.0424C3.66607 4.92983 3.57666 4.79615 3.51566 4.649C3.45467 4.50185 3.42327 4.34412 3.42327 4.18483C3.42327 4.02554 3.45467 3.86781 3.51566 3.72066C3.57666 3.57351 3.66607 3.43983 3.77877 3.32725C3.89134 3.21455 4.02502 3.12515 4.17217 3.06415C4.31932 3.00315 4.47705 2.97175 4.63634 2.97175C4.79563 2.97175 4.95336 3.00315 5.10051 3.06415C5.24766 3.12515 5.38135 3.21455 5.49392 3.32725L5.53028 3.36362C5.67312 3.50334 5.85453 3.59706 6.05114 3.63271C6.24774 3.66836 6.45052 3.64429 6.63331 3.56362H6.6818C6.86105 3.48679 7.01393 3.35923 7.12161 3.19663C7.22929 3.03403 7.28708 2.84349 7.28786 2.64846V2.54543C7.28786 2.22396 7.41556 1.91565 7.64288 1.68834C7.8702 1.46102 8.1785 1.33331 8.49998 1.33331C8.82145 1.33331 9.12976 1.46102 9.35708 1.68834C9.58439 1.91565 9.7121 2.22396 9.7121 2.54543V2.59998C9.71288 2.795 9.77067 2.98554 9.87835 3.14814C9.98603 3.31074 10.1389 3.43831 10.3182 3.51513C10.501 3.59581 10.7037 3.61987 10.9003 3.58422C11.0969 3.54858 11.2784 3.45485 11.4212 3.31513L11.4576 3.27877C11.5701 3.16607 11.7038 3.07666 11.851 3.01566C11.9981 2.95467 12.1558 2.92327 12.3151 2.92327C12.4744 2.92327 12.6322 2.95467 12.7793 3.01566C12.9265 3.07666 13.0601 3.16607 13.1727 3.27877C13.2854 3.39134 13.3748 3.52502 13.4358 3.67217C13.4968 3.81932 13.5282 3.97705 13.5282 4.13634C13.5282 4.29563 13.4968 4.45336 13.4358 4.60051C13.3748 4.74766 13.2854 4.88135 13.1727 4.99392L13.1363 5.03028C12.9966 5.17312 12.9029 5.35453 12.8672 5.55114C12.8316 5.74774 12.8557 5.95052 12.9363 6.13331V6.1818C13.0132 6.36105 13.1407 6.51393 13.3033 6.62161C13.4659 6.72929 13.6565 6.78708 13.8515 6.78786H13.9545C14.276 6.78786 14.5843 6.91556 14.8116 7.14288C15.0389 7.3702 15.1666 7.6785 15.1666 7.99998C15.1666 8.32145 15.0389 8.62976 14.8116 8.85708C14.5843 9.08439 14.276 9.2121 13.9545 9.2121H13.9C13.705 9.21288 13.5144 9.27067 13.3518 9.37835C13.1892 9.48603 13.0617 9.63891 12.9848 9.81816Z" stroke="black" stroke-width="1.5" stroke-linecap="round" stroke-linejoin="round"/>
</svg>
