<svg width="17" height="17" viewBox="0 0 17 17" fill="none" xmlns="http://www.w3.org/2000/svg">
<path d="M11.165 14.015H4.9859C4.58203 14.015 4.38009 14.015 4.28658 13.9351C4.20544 13.8658 4.16238 13.7619 4.17076 13.6555C4.1804 13.5329 4.3232 13.3901 4.60878 13.1045L10.2774 7.43591C10.5414 7.1719 10.6734 7.0399 10.8256 6.99044C10.9595 6.94693 11.1038 6.94693 11.2377 6.99044C11.3899 7.0399 11.5219 7.1719 11.7859 7.43591L14.365 10.015V10.815M11.165 14.015C12.2851 14.015 12.8451 14.015 13.273 13.797C13.6493 13.6053 13.9553 13.2993 14.147 12.923C14.365 12.4952 14.365 11.9351 14.365 10.815M11.165 14.015H5.56499C4.44489 14.015 3.88483 14.015 3.45701 13.797C3.08069 13.6053 2.77472 13.2993 2.58298 12.923C2.36499 12.4952 2.36499 11.9351 2.36499 10.815V5.215C2.36499 4.09489 2.36499 3.53484 2.58298 3.10702C2.77472 2.73069 3.08069 2.42473 3.45701 2.23299C3.88483 2.015 4.44489 2.015 5.56499 2.015H11.165C12.2851 2.015 12.8451 2.015 13.273 2.23299C13.6493 2.42473 13.9553 2.73069 14.147 3.10702C14.365 3.53484 14.365 4.09489 14.365 5.215V10.815M7.36499 5.68167C7.36499 6.41805 6.76804 7.015 6.03166 7.015C5.29528 7.015 4.69832 6.41805 4.69832 5.68167C4.69832 4.94529 5.29528 4.34833 6.03166 4.34833C6.76804 4.34833 7.36499 4.94529 7.36499 5.68167Z" stroke="black" stroke-width="1.34" stroke-linecap="round" stroke-linejoin="round"/>
</svg>
