<svg width="17" height="17" viewBox="0 0 17 17" fill="none" xmlns="http://www.w3.org/2000/svg">
<g clip-path="url(#clip0_802_910)">
<path d="M8.71166 9.34833L6.71166 7.34833M10.0519 2.34834V1.34834M12.6781 3.38878L13.3852 2.68167M12.6781 8.68167L13.3852 9.38878M7.38522 3.38878L6.67812 2.68167M13.7186 6.015H14.7186M4.13257 13.9274L10.2907 7.76925C10.5548 7.50524 10.6868 7.37323 10.7362 7.22101C10.7797 7.08712 10.7797 6.94289 10.7362 6.80899C10.6868 6.65677 10.5548 6.52477 10.2907 6.26075L9.79924 5.76925C9.53522 5.50524 9.40322 5.37323 9.251 5.32377C9.1171 5.28027 8.97287 5.28027 8.83898 5.32377C8.68676 5.37323 8.55475 5.50524 8.29074 5.76925L2.13257 11.9274C1.86856 12.1914 1.73655 12.3234 1.68709 12.4757C1.64359 12.6096 1.64359 12.7538 1.68709 12.8877C1.73655 13.0399 1.86856 13.1719 2.13257 13.4359L2.62408 13.9274C2.88809 14.1914 3.02009 14.3234 3.17231 14.3729C3.30621 14.4164 3.45044 14.4164 3.58433 14.3729C3.73655 14.3234 3.86856 14.1914 4.13257 13.9274Z" stroke="black" stroke-width="1.34" stroke-linecap="round" stroke-linejoin="round"/>
</g>
<defs>
<clipPath id="clip0_802_910">
<rect width="16" height="16" fill="white" transform="translate(0.0449829 0.0149994)"/>
</clipPath>
</defs>
</svg>
