<svg width="17" height="17" viewBox="0 0 17 17" fill="none" xmlns="http://www.w3.org/2000/svg">
<g clip-path="url(#clip0_802_898)">
<path d="M6.95167 10.015L4.9015 12.0908C4.61553 12.3803 4.47254 12.5251 4.34964 12.5353C4.24301 12.5442 4.13862 12.5013 4.06898 12.4201C3.98871 12.3265 3.98871 12.123 3.98871 11.716V10.6761C3.98871 10.311 3.68972 10.0468 3.32848 9.99389V9.99389C2.45417 9.86582 1.76752 9.17917 1.63946 8.30487C1.61834 8.1607 1.61834 7.98868 1.61834 7.64463V4.54834C1.61834 3.42823 1.61834 2.86818 1.83633 2.44035C2.02807 2.06403 2.33403 1.75807 2.71036 1.56632C3.13818 1.34834 3.69823 1.34834 4.81834 1.34834H9.75167C10.8718 1.34834 11.4318 1.34834 11.8597 1.56632C12.236 1.75807 12.5419 2.06403 12.7337 2.44035C12.9517 2.86818 12.9517 3.42823 12.9517 4.54834V7.34834M12.9517 14.6817L11.5007 13.6729C11.2968 13.5311 11.1948 13.4602 11.0838 13.41C10.9853 13.3653 10.8817 13.3329 10.7754 13.3133C10.6556 13.2912 10.5314 13.2912 10.283 13.2912H9.08501C8.33827 13.2912 7.9649 13.2912 7.67969 13.1459C7.4288 13.018 7.22483 12.8141 7.097 12.5632C6.95167 12.278 6.95167 11.9046 6.95167 11.1579V9.48167C6.95167 8.73493 6.95167 8.36156 7.097 8.07635C7.22483 7.82547 7.4288 7.62149 7.67969 7.49366C7.9649 7.34834 8.33827 7.34834 9.08501 7.34834H12.8183C13.5651 7.34834 13.9384 7.34834 14.2237 7.49366C14.4745 7.62149 14.6785 7.82547 14.8063 8.07635C14.9517 8.36156 14.9517 8.73493 14.9517 9.48167V11.2912C14.9517 11.9124 14.9517 12.2231 14.8502 12.4681C14.7149 12.7948 14.4553 13.0544 14.1286 13.1897C13.8836 13.2912 13.5729 13.2912 12.9517 13.2912V14.6817Z" stroke="black" stroke-width="1.34" stroke-linecap="round" stroke-linejoin="round"/>
</g>
<defs>
<clipPath id="clip0_802_898">
<rect width="16" height="16" fill="white" transform="translate(0.285004 0.0149994)"/>
</clipPath>
</defs>
</svg>
