<svg width="17" height="17" viewBox="0 0 17 17" fill="none" xmlns="http://www.w3.org/2000/svg">
<path d="M6.77834 10.015V6.015M10.1117 10.015V6.015M5.64501 14.015H11.245C12.3651 14.015 12.9252 14.015 13.353 13.797C13.7293 13.6053 14.0353 13.2993 14.227 12.923C14.445 12.4952 14.445 11.9351 14.445 10.815V5.215C14.445 4.09489 14.445 3.53484 14.227 3.10702C14.0353 2.73069 13.7293 2.42473 13.353 2.23299C12.9252 2.015 12.3651 2.015 11.245 2.015H5.64501C4.5249 2.015 3.96485 2.015 3.53703 2.23299C3.1607 2.42473 2.85474 2.73069 2.66299 3.10702C2.44501 3.53484 2.44501 4.09489 2.44501 5.215V10.815C2.44501 11.9351 2.44501 12.4952 2.66299 12.923C2.85474 13.2993 3.1607 13.6053 3.53703 13.797C3.96485 14.015 4.5249 14.015 5.64501 14.015Z" stroke="black" stroke-width="1.34" stroke-linecap="round" stroke-linejoin="round"/>
</svg>
