<svg width="17" height="17" viewBox="0 0 17 17" fill="none" xmlns="http://www.w3.org/2000/svg">
<path d="M4.31833 3.34141C4.31833 2.69397 4.31833 2.37025 4.45332 2.1918C4.57093 2.03634 4.75068 1.94014 4.94526 1.92853C5.16862 1.91519 5.43797 2.09476 5.97668 2.45389L12.987 7.12748C13.4322 7.42423 13.6547 7.5726 13.7323 7.75962C13.8001 7.92312 13.8001 8.10687 13.7323 8.27038C13.6547 8.45739 13.4322 8.60577 12.987 8.90252L5.97667 13.5761C5.43797 13.9352 5.16862 14.1148 4.94526 14.1015C4.75068 14.0898 4.57093 13.9936 4.45332 13.8382C4.31833 13.6597 4.31833 13.336 4.31833 12.6886V3.34141Z" stroke="black" stroke-width="1.34" stroke-linecap="round" stroke-linejoin="round"/>
</svg>
