<svg width="17" height="16" viewBox="0 0 17 16" fill="none" xmlns="http://www.w3.org/2000/svg">
<path d="M2.75 5.33337L10.75 5.33337M10.75 5.33337C10.75 6.43794 11.6454 7.33337 12.75 7.33337C13.8546 7.33337 14.75 6.43794 14.75 5.33337C14.75 4.2288 13.8546 3.33337 12.75 3.33337C11.6454 3.33337 10.75 4.22881 10.75 5.33337ZM6.75 10.6667L14.75 10.6667M6.75 10.6667C6.75 11.7713 5.85457 12.6667 4.75 12.6667C3.64543 12.6667 2.75 11.7713 2.75 10.6667C2.75 9.56214 3.64543 8.66671 4.75 8.66671C5.85457 8.66671 6.75 9.56214 6.75 10.6667Z" stroke="black" stroke-width="1.5" stroke-linecap="round" stroke-linejoin="round"/>
</svg>
