<svg width="17" height="17" viewBox="0 0 17 17" fill="none" xmlns="http://www.w3.org/2000/svg">
<g clip-path="url(#clip0_802_902)">
<path d="M14.8717 14.015V12.6817C14.8717 11.4391 14.0218 10.395 12.8717 10.099M10.5383 2.20884C11.5156 2.60443 12.205 3.56254 12.205 4.68167C12.205 5.80079 11.5156 6.7589 10.5383 7.15449M11.5383 14.015C11.5383 12.7725 11.5383 12.1512 11.3353 11.6612C11.0647 11.0078 10.5456 10.4886 9.89214 10.218C9.40209 10.015 8.78083 10.015 7.53832 10.015H5.53832C4.29581 10.015 3.67455 10.015 3.1845 10.218C2.53109 10.4886 2.01196 11.0078 1.74131 11.6612C1.53832 12.1512 1.53832 12.7725 1.53832 14.015M9.20499 4.68167C9.20499 6.15443 8.01108 7.34833 6.53832 7.34833C5.06556 7.34833 3.87165 6.15443 3.87165 4.68167C3.87165 3.20891 5.06556 2.015 6.53832 2.015C8.01108 2.015 9.20499 3.20891 9.20499 4.68167Z" stroke="black" stroke-width="1.34" stroke-linecap="round" stroke-linejoin="round"/>
</g>
<defs>
<clipPath id="clip0_802_902">
<rect width="16" height="16" fill="white" transform="translate(0.204987 0.0149994)"/>
</clipPath>
</defs>
</svg>
