<svg width="31" height="29" viewBox="0 0 31 29" fill="none" xmlns="http://www.w3.org/2000/svg">
<path d="M9.34083 6.72964C11.0385 3.17989 15.2923 1.67839 18.8421 3.37596V3.37596L6.70237 28.7602L3.92223 27.4307C1.90787 26.4674 1.05586 24.0535 2.01919 22.0392L9.34083 6.72964Z" fill="#8A1FE4"/>
<path d="M16.754 9.28944C16.8594 15.6813 22.6807 15.5233 25.5782 14.6453L19.6515 4.15312L19.6076 4.10922L19.5198 4.02142C19.5125 4.0141 19.4891 3.99508 19.454 3.97752C19.4188 3.95996 19.3954 3.95557 19.3881 3.95557H19.3442L19.2784 3.99947C18.1369 5.66767 17.1199 8.2212 16.754 9.28944Z" fill="#8A1FE4"/>
<path d="M18.7478 25.1934C16.8941 26.0524 16.1292 28.0757 15.9785 28.9799H23.8907C28.3667 28.0304 29.9002 26.0599 30.1074 25.1934H18.7478Z" fill="#8A1FE4"/>
<path d="M10.4095 28.9801H15.3003C16.0689 25.6796 17.8059 24.5531 18.5782 24.4024H29.4858C30.4352 23.9502 30.3335 23.1213 30.164 22.7634L28.638 19.9941H17.1088C11.3668 21.6218 10.2501 26.663 10.4095 28.9801Z" fill="#8A1FE4"/>
</svg>
